<?xml version="1.0" standalone="no"?>
<!DOCTYPE svg PUBLIC "-//W3C//DTD SVG 20010904//EN"
 "http://www.w3.org/TR/2001/REC-SVG-20010904/DTD/svg10.dtd">
<svg version="1.0" xmlns="http://www.w3.org/2000/svg"
 width="2536.000000pt" height="2320.000000pt" viewBox="0 0 2536.000000 2320.000000"
 preserveAspectRatio="xMidYMid meet">

<g transform="translate(0.000000,2320.000000) scale(0.100000,-0.100000)"
fill="#000000" stroke="none">
<path d="M10205 16482 c-16 -11 -36 -26 -44 -35 -9 -11 -29 -17 -59 -17 -53 0
-102 -27 -122 -67 -10 -20 -15 -80 -18 -200 l-4 -173 45 0 44 0 5 81 c4 71 8
84 32 107 26 27 27 27 209 32 120 3 190 9 204 18 43 24 74 78 80 137 l6 56 24
-23 c38 -35 53 -72 53 -128 l0 -50 36 0 36 0 -4 89 c-3 99 -16 127 -78 169
-31 21 -42 22 -224 22 -168 0 -195 -2 -221 -18z"/>
<path d="M12274 14508 c3 -13 6 -29 6 -35 0 -10 220 -13 1066 -13 968 0 1066
1 1060 16 -3 9 -6 24 -6 35 0 19 -22 19 -1066 19 l-1066 0 6 -22z"/>
<path d="M6000 14249 c-30 -6 -189 -32 -353 -59 -164 -27 -305 -54 -313 -61
-31 -26 -44 -65 -37 -118 5 -48 5 -51 -17 -51 -13 0 -52 -5 -88 -11 -109 -19
-171 -99 -144 -186 10 -32 8 -41 -15 -81 -21 -35 -27 -62 -31 -121 -5 -96 19
-161 84 -221 84 -77 167 -90 345 -54 l26 5 -1 -153 c-1 -103 4 -169 13 -201
18 -64 79 -130 149 -163 85 -41 163 -42 381 -8 100 15 185 31 191 34 5 3 2 52
-9 125 -11 66 -32 202 -47 303 -16 101 -32 188 -35 194 -7 11 -134 -3 -211
-23 -69 -18 -128 -88 -128 -153 0 -30 -16 -36 -98 -36 -125 1 -171 38 -196
163 -12 58 -14 62 -47 68 -49 11 -89 59 -89 110 0 33 6 47 35 76 19 19 39 32
43 29 5 -3 12 -29 16 -57 5 -36 11 -49 20 -46 7 3 39 8 70 12 54 7 57 9 52 31
-15 58 -17 112 -6 152 14 56 70 117 123 136 23 9 134 29 246 45 215 31 233 37
275 95 15 20 21 43 21 81 0 113 -86 169 -225 144z m95 -1036 c6 -28 3 -34 -17
-42 -37 -15 -179 -34 -188 -24 -8 8 -24 73 -18 74 95 18 205 34 209 30 4 -4
10 -21 14 -38z"/>
<path d="M18864 13696 c-50 -13 -110 -34 -133 -46 -106 -53 -187 -181 -198
-307 -4 -57 2 -99 41 -271 47 -208 72 -274 126 -336 67 -76 183 -126 292 -126
69 0 77 10 58 73 -17 58 -68 117 -131 152 -46 25 -68 30 -148 33 l-93 4 -13
32 c-7 17 -32 116 -55 220 -44 202 -45 232 -10 312 10 23 22 44 27 47 6 4 24
-31 41 -77 80 -209 238 -362 396 -381 l53 -7 16 -52 c25 -80 101 -228 137
-270 l33 -37 27 26 26 25 30 -31 c16 -17 58 -46 94 -65 67 -35 209 -134 285
-198 39 -32 45 -43 59 -108 20 -94 34 -238 42 -435 3 -87 7 -171 9 -188 1 -16
3 -51 4 -77 l1 -48 53 21 c83 32 135 67 198 131 156 159 195 411 91 602 -31
57 -121 158 -163 183 -26 15 -27 18 -14 43 23 44 45 145 45 203 0 260 -195
474 -457 501 -43 4 -165 -8 -196 -20 -13 -5 -17 -1 -17 15 0 46 -52 237 -77
283 -37 69 -120 142 -191 168 -87 33 -179 35 -288 6z"/>
<path d="M12350 13605 l0 -35 463 0 463 0 -4 35 -4 35 -459 0 -459 0 0 -35z"/>
<path d="M14514 13136 c-33 -14 -44 -33 -44 -71 0 -35 -23 -47 -106 -55 -81
-8 -132 -34 -126 -64 1 -8 -5 -30 -14 -47 -21 -41 -9 -63 55 -108 80 -54 100
-80 111 -147 22 -121 43 -144 100 -111 21 11 44 18 53 14 36 -14 9 -155 -34
-177 -20 -11 -39 -67 -39 -115 0 -17 17 -57 38 -93 l38 -64 215 1 214 1 39 28
c71 49 71 51 134 426 l58 348 -155 75 c-326 155 -456 194 -537 159z"/>
<path d="M9516 12961 c-3 -24 -6 -273 -6 -552 l0 -509 186 0 c190 0 224 -6
224 -39 0 -10 -71 -290 -158 -622 -120 -460 -158 -616 -156 -654 2 -27 3 -60
3 -72 l1 -23 280 0 280 0 -1 173 c0 95 2 188 5 207 8 50 76 1194 76 1283 0 30
6 38 36 56 20 12 37 21 38 19 1 -2 28 -107 59 -235 112 -450 257 -934 355
-1178 28 -70 42 -123 46 -175 4 -41 9 -92 12 -112 l6 -38 264 0 c145 0 264 2
264 5 0 3 -9 83 -20 178 -10 94 -21 197 -24 227 -8 94 -388 2015 -400 2022 -6
4 -40 8 -76 9 -36 0 -340 17 -676 37 l-612 37 -6 -44z"/>
<path d="M12430 12705 l0 -35 920 0 920 0 0 35 0 35 -920 0 -920 0 0 -35z"/>
<path d="M4498 11506 c-12 -12 -11 -30 8 -127 47 -233 58 -349 58 -639 0 -391
-23 -549 -117 -805 -31 -82 -79 -213 -107 -290 -84 -224 -102 -306 -107 -481
-4 -118 -2 -170 11 -234 32 -154 97 -261 195 -318 25 -14 52 -34 59 -44 12
-17 36 -18 307 -18 l295 0 4 23 c3 12 7 48 11 80 l5 58 -310 -3 c-278 -3 -310
-1 -310 13 0 9 -10 24 -21 35 -31 27 -63 81 -84 139 -12 35 -19 92 -22 190 -8
215 11 292 186 749 34 88 61 164 61 168 0 4 -18 8 -40 8 -22 0 -40 5 -40 10 0
6 11 70 24 143 13 73 30 184 37 247 18 156 15 543 -4 697 -20 155 -68 413 -78
413 -4 0 -14 -6 -21 -14z"/>
<path d="M20646 11100 c-76 -355 -86 -768 -26 -1115 11 -60 22 -125 26 -142 6
-33 6 -33 -31 -33 -36 0 -37 -1 -30 -27 3 -16 42 -121 85 -234 114 -296 132
-372 132 -539 0 -166 -20 -242 -82 -313 -22 -25 -40 -51 -40 -59 0 -11 -160
-13 -955 -10 l-955 2 0 -39 c0 -21 3 -53 6 -70 l7 -31 242 0 243 0 7 -41 c8
-46 55 -106 91 -115 23 -6 24 -8 26 -146 l3 -140 78 -1 77 -2 0 137 0 138 39
19 c46 24 81 76 81 120 l0 31 499 0 c441 0 500 2 512 16 7 8 29 24 49 34 44
22 112 94 138 147 47 90 57 150 57 323 0 205 -10 246 -145 605 -54 143 -103
285 -109 315 -33 169 -45 303 -45 530 -1 249 9 360 50 570 13 69 24 126 24
127 0 1 -8 7 -18 12 -17 9 -20 2 -36 -69z"/>
<path d="M23070 11163 c5 -2 8 -9 4 -14 -3 -5 0 -9 6 -9 15 0 7 23 -8 26 -7 1
-8 0 -2 -3z"/>
<path d="M22885 11105 c-25 -12 -26 -14 -5 -9 28 7 60 23 45 23 -5 0 -23 -6
-40 -14z"/>
<path d="M22910 11090 c-8 -5 -10 -10 -5 -10 6 0 17 5 25 10 8 5 11 10 5 10
-5 0 -17 -5 -25 -10z"/>
<path d="M22810 11075 c-14 -8 -20 -14 -15 -14 6 0 21 6 35 14 14 8 21 14 15
14 -5 0 -21 -6 -35 -14z"/>
<path d="M22860 11070 c-8 -5 -10 -10 -5 -10 6 0 17 5 25 10 8 5 11 10 5 10
-5 0 -17 -5 -25 -10z"/>
<path d="M22700 11026 c-51 -26 -69 -42 -83 -71 l-18 -38 29 24 c16 13 38 30
48 37 17 11 17 11 -3 2 -69 -32 -31 6 45 45 37 19 63 34 57 34 -5 0 -39 -15
-75 -33z"/>
<path d="M22800 11045 c-14 -8 -20 -14 -15 -14 6 0 21 6 35 14 14 8 21 14 15
14 -5 0 -21 -6 -35 -14z"/>
<path d="M21450 10946 c-71 -16 -97 -30 -120 -69 -41 -67 -14 -174 54 -217 20
-12 77 -32 128 -46 169 -45 360 -155 439 -254 30 -38 36 -40 85 -40 29 0 56 4
59 10 9 14 -22 179 -51 267 -30 91 -83 190 -130 243 -88 97 -293 144 -464 106z"/>
<path d="M13940 10667 c-50 -33 -66 -70 -89 -203 -59 -351 -51 -701 30 -1282
17 -123 29 -225 27 -228 -3 -2 -131 0 -284 7 -153 6 -403 11 -554 12 l-275 2
-54 -30 c-124 -69 -192 -216 -190 -418 0 -51 41 -586 92 -1191 l92 -1098 -27
-20 c-51 -36 -194 -96 -341 -143 -127 -41 -148 -51 -153 -71 -3 -12 -3 -28 1
-33 4 -7 102 -11 292 -11 253 0 289 2 305 17 17 15 19 15 36 0 15 -14 40 -17
129 -17 l110 0 13 77 c15 96 18 103 40 103 15 0 18 14 24 98 4 53 11 156 17
227 14 192 22 1234 11 1410 -5 83 -8 151 -7 153 2 2 83 -15 182 -37 98 -23
207 -47 243 -54 51 -10 67 -18 75 -35 9 -21 15 -22 155 -22 l146 0 -4 -42 c-5
-78 -21 -204 -33 -273 l-11 -67 -318 7 c-315 7 -318 7 -339 -14 -27 -27 -29
-91 -3 -114 16 -15 49 -17 261 -17 185 0 243 -3 245 -12 2 -7 32 -157 66 -333
33 -176 64 -330 66 -342 5 -20 1 -22 -75 -29 -73 -6 -82 -9 -87 -29 -3 -13 -1
-32 5 -44 6 -11 75 -75 154 -141 l142 -121 90 5 c50 3 113 12 141 20 54 17 64
30 64 91 0 20 9 36 26 50 l27 21 -52 415 c-28 228 -51 422 -51 432 0 15 11 17
84 17 l83 0 6 -39 c6 -51 33 -86 79 -108 l37 -18 1 -137 0 -138 80 0 80 0 0
139 c0 138 0 139 24 145 36 9 85 71 92 116 l7 40 572 0 c541 0 573 1 588 18
19 21 22 73 7 103 -9 16 -22 19 -86 19 l-76 0 6 26 c31 122 40 243 41 529 0
327 -7 421 -71 885 -70 509 -86 670 -91 952 -6 282 3 422 38 603 24 128 24
141 -6 170 -46 47 -158 26 -199 -37 -15 -24 -36 -115 -58 -258 -18 -115 -18
-673 0 -835 7 -66 24 -199 38 -295 96 -685 115 -875 115 -1159 0 -229 -11
-364 -42 -528 l-10 -53 -730 0 c-401 0 -729 3 -729 8 0 4 7 47 15 95 9 48 19
129 23 180 l7 92 455 5 c410 5 460 7 505 23 114 43 181 82 246 147 57 57 70
75 88 133 32 104 44 227 38 385 -3 79 -8 146 -11 149 -3 4 -311 11 -683 16
-373 5 -679 11 -681 12 -8 7 -95 679 -111 865 -29 330 -23 593 20 840 35 196
35 185 6 214 -35 35 -109 36 -157 3z"/>
<path d="M15991 10453 c0 -21 6 -74 12 -118 l12 -80 1463 -3 1462 -2 0 120 0
120 -1475 0 -1475 0 1 -37z"/>
<path d="M5175 10238 c-26 -76 -88 -567 -88 -698 0 -88 4 -118 26 -185 25 -74
52 -125 60 -114 2 2 25 213 51 469 26 256 49 482 52 503 l6 37 -51 0 c-32 0
-53 -5 -56 -12z"/>
<path d="M5642 10178 c-42 -286 -143 -1091 -137 -1096 13 -13 812 -6 1030 9
66 5 181 15 255 23 74 9 179 18 234 21 l99 7 -7 -24 c-7 -29 -34 -228 -44
-331 l-7 -78 -806 1 -807 0 -6 -47 c-4 -27 -10 -63 -13 -80 l-5 -33 96 0 96 0
0 -30 c0 -55 55 -129 108 -145 22 -6 22 -9 22 -161 l0 -154 90 0 90 0 0 154 0
154 29 12 c55 23 101 88 101 146 l0 24 499 0 499 0 5 -222 c5 -244 22 -358 93
-641 91 -360 253 -828 360 -1039 37 -71 38 -76 35 -168 l-2 -96 48 -40 c26
-23 58 -46 70 -52 21 -12 135 -17 145 -7 2 3 -3 56 -12 119 -13 93 -21 121
-43 149 -27 36 -27 36 -27 209 0 166 -6 222 -160 1393 -88 671 -176 1342 -196
1490 -19 149 -38 273 -42 277 -4 4 -205 75 -447 158 -242 83 -444 155 -449
160 -6 6 -160 10 -397 10 l-387 0 -10 -72z"/>
<path d="M9630 10226 c0 -42 135 -1655 146 -1738 4 -35 10 -48 22 -48 20 0
-31 -55 -105 -112 -45 -34 -53 -46 -53 -73 0 -31 2 -33 46 -39 26 -3 92 -6
147 -6 84 0 105 3 138 22 22 12 39 25 39 30 0 4 15 14 33 21 l32 14 18 259
c26 367 45 682 52 879 3 94 8 179 10 190 2 11 7 156 11 323 l7 302 -272 0
-271 0 0 -24z"/>
<path d="M10835 10218 c3 -18 25 -154 50 -303 52 -310 119 -668 208 -1105 52
-252 66 -305 79 -302 12 2 18 -14 29 -78 l13 -80 92 0 c65 0 94 4 97 13 3 10
9 10 26 0 15 -10 85 -13 252 -13 l230 0 -3 27 c-3 26 -12 31 -133 74 -138 48
-220 86 -272 127 -37 28 -41 38 -15 45 12 3 10 5 -7 6 l-23 1 6 178 c3 97 9
215 12 262 4 66 -9 206 -55 620 -34 294 -61 540 -61 547 0 10 -55 13 -265 13
l-266 0 6 -32z"/>
<path d="M17463 10199 c-76 -38 -122 -105 -189 -283 -69 -180 -209 -579 -355
-1015 l-149 -444 89 -96 c49 -53 104 -110 123 -128 l33 -32 285 494 c157 272
288 494 293 495 4 0 7 -6 7 -13 0 -25 249 -2079 252 -2083 2 -2 86 -1 186 3
157 5 182 8 182 22 0 9 -25 444 -54 966 -30 523 -52 952 -50 954 2 2 62 0 134
-5 126 -9 130 -8 130 11 0 22 -128 1007 -135 1041 -4 19 -31 25 -347 78 -189
31 -354 56 -368 56 -14 0 -44 -9 -67 -21z"/>
<path d="M18620 10028 c-1 -24 103 -1023 106 -1027 3 -3 612 -49 644 -48 8 0
53 -6 100 -14 103 -17 330 -18 385 -1 130 38 233 175 301 397 27 86 28 100 28
302 1 129 -3 216 -9 221 -12 12 -188 37 -364 53 -131 11 -499 7 -568 -7 -31
-6 -33 -4 -33 20 0 14 -2 26 -4 26 -3 0 -129 20 -280 45 -308 50 -306 50 -306
33z"/>
<path d="M7714 9768 c3 -13 17 -146 32 -296 l28 -273 50 6 c28 4 55 8 61 9 13
1 21 -127 39 -629 10 -258 24 -490 36 -600 64 -557 178 -1113 283 -1380 18
-44 32 -84 33 -90 1 -27 16 -133 21 -152 5 -21 11 -23 72 -23 40 0 72 5 79 12
10 10 17 10 32 0 14 -8 75 -12 201 -12 l180 0 -3 28 c-3 25 -12 30 -148 78
-80 27 -164 63 -188 79 l-43 28 1 1490 1 1490 -373 129 c-205 70 -379 128
-386 128 -8 0 -11 -8 -8 -22z"/>
<path d="M13665 9330 c10 -11 20 -20 23 -20 3 0 -3 9 -13 20 -10 11 -20 20
-23 20 -3 0 3 -9 13 -20z"/>
<path d="M18259 8614 c-7 -9 -14 -33 -14 -54 0 -62 15 -70 117 -70 l90 0 -7
63 c-4 34 -9 65 -12 70 -2 4 -39 7 -82 7 -60 0 -82 -4 -92 -16z"/>
<path d="M15940 7861 c0 -17 18 -21 24 -6 3 9 0 15 -9 15 -8 0 -15 -4 -15 -9z"/>
<path d="M16705 7833 c-45 -10 -107 -13 -251 -9 l-192 5 -4 -23 c-5 -22 -1
-24 70 -30 41 -3 119 -6 172 -6 l97 0 11 -38 c11 -35 16 -40 59 -50 27 -6 51
-8 55 -4 3 4 18 35 32 69 26 61 33 104 19 102 -5 -1 -35 -8 -68 -16z"/>
<path d="M18368 6904 c-53 -28 -48 -107 7 -130 88 -36 149 87 65 131 -35 18
-38 18 -72 -1z"/>
<path d="M18538 6890 c-36 -36 -33 -71 9 -108 72 -65 167 45 98 113 -33 34
-70 32 -107 -5z"/>
<path d="M20306 6899 c-20 -16 -26 -29 -26 -59 0 -44 35 -80 77 -80 34 0 73
42 73 80 0 38 -39 80 -73 80 -13 0 -36 -9 -51 -21z"/>
<path d="M20520 6913 c-52 -19 -69 -93 -30 -128 49 -44 140 3 125 64 -11 45
-59 77 -95 64z"/>
<path d="M4606 6789 c-19 -15 -26 -30 -26 -55 0 -47 13 -69 50 -84 35 -15 84
0 100 31 45 82 -51 166 -124 108z"/>
<path d="M4805 6785 c-37 -36 -34 -86 6 -119 31 -26 63 -33 87 -18 19 13 29
142 11 153 -28 17 -79 10 -104 -16z"/>
<path d="M6755 6785 c-52 -51 -15 -145 57 -145 35 0 88 48 88 80 0 29 -26 76
-45 84 -35 13 -76 6 -100 -19z"/>
<path d="M6966 6789 c-19 -15 -26 -30 -26 -55 0 -47 13 -69 50 -84 35 -15 84
0 100 31 45 82 -51 166 -124 108z"/>
<path d="M18184 6642 c-49 -44 -193 -126 -334 -189 -82 -37 -103 -43 -115 -33
-8 7 -15 18 -15 24 0 6 -4 17 -9 24 -16 27 -261 -127 -261 -164 0 -18 -8 -19
162 21 126 29 169 45 316 116 l170 81 35 -26 c33 -25 37 -26 82 -15 l47 12 -7
71 c-7 82 -14 116 -24 116 -3 -1 -25 -18 -47 -38z"/>
<path d="M13562 5778 c-23 -12 -38 -48 -33 -83 5 -44 67 -69 112 -44 46 24 42
105 -7 128 -30 13 -42 13 -72 -1z"/>
<path d="M13735 5765 c-43 -42 -28 -103 29 -125 57 -21 117 39 96 96 -22 57
-83 72 -125 29z"/>
<path d="M15495 5765 c-31 -30 -32 -66 -2 -101 33 -38 81 -37 115 1 64 75 -44
170 -113 100z"/>
<path d="M15685 5765 c-30 -30 -32 -64 -4 -99 41 -53 129 -23 129 44 0 38 -39
80 -75 80 -14 0 -37 -11 -50 -25z"/>
</g>
</svg>
